<svg width="40" height="40" viewBox="0 0 512 512" fill="" xmlns="http://www.w3.org/2000/svg">
  <path d="M256 32C172.05 32 104 100.05 104 184C104 239.54 133.8 288.11 178.19 314.41V352H333.81V314.41C378.2 288.11 408 239.54 408 184C408 100.05 339.95 32 256 32ZM301.81 320H210.19V304.81C224.62 314.54 240.06 320 256 320C271.94 320 287.38 314.54 301.81 304.81V320ZM376 184C376 250.17 322.17 304 256 304C189.83 304 136 250.17 136 184C136 117.83 189.83 64 256 64C322.17 64 376 117.83 376 184Z" fill="black"/>
  
  <path d="M240 160V288H272V160H314.47L282.47 128H229.53L197.53 160H240Z" fill="black"/>
  
  <rect x="176" y="368" width="160" height="32" fill="black"/>
  <rect x="176" y="416" width="160" height="32" fill="black"/>
  <rect x="208" y="464" width="96" height="32" fill="black"/>
</svg>
