<svg width="40" height="40" viewBox="0 0 512 512" fill="none" xmlns="http://www.w3.org/2000/svg">
  <path d="M256 40C178.7 40 116 102.7 116 180C116 235.1 147.8 282.8 194 305.6V340H256V40Z" fill="#FFF192"/>
  <path d="M256 40V340H318V305.6C364.2 282.8 396 235.1 396 180C396 102.7 333.3 40 256 40Z" fill="#FFD93D"/>

  <path d="M256 150L210 190V260H256V150Z" fill="#F4AD30"/>
  <path d="M256 150V260H302V190L256 150Z" fill="#FF8100"/>

  <path d="M180 360C180 353.4 185.4 348 192 348H256V388H192C185.4 388 180 382.6 180 376V360Z" fill="#CED6E0"/>
  <path d="M256 348H320C326.6 348 332 353.4 332 360V376C332 382.6 326.6 388 320 388H256V348Z" fill="#A4B0BE"/>
  
  <path d="M180 412C180 405.4 185.4 400 192 400H256V440H192C185.4 440 180 434.6 180 428V412Z" fill="#CED6E0"/>
  <path d="M256 400H320C326.6 400 332 405.4 332 412V428C332 434.6 326.6 440 320 440H256V400Z" fill="#A4B0BE"/>

  <path d="M220 440H256V480H230C224.5 480 220 475.5 220 470V440Z" fill="#E2E8F0"/>
  <path d="M256 440H292V470C292 475.5 287.5 480 282 480H256V440Z" fill="#CED6E0"/>
</svg>
