<svg width="200" height="200" viewBox="0 0 200 200" xmlns="http://www.w3.org/2000/svg">
  <rect x="10" y="10" width="180" height="180" rx="40" fill="#3b71ca" />
  
  <rect x="55" y="55" width="90" height="90" rx="8" fill="none" stroke="white" stroke-width="8"/>
  
  <rect x="82" y="82" width="36" height="36" rx="4" fill="none" stroke="white" stroke-width="8"/>
  
  <line x1="75" y1="35" x2="75" y2="55" stroke="white" stroke-width="8" stroke-linecap="round"/>
  <line x1="100" y1="35" x2="100" y2="55" stroke="white" stroke-width="8" stroke-linecap="round"/>
  <line x1="125" y1="35" x2="125" y2="55" stroke="white" stroke-width="8" stroke-linecap="round"/>
  
  <line x1="75" y1="145" x2="75" y2="165" stroke="white" stroke-width="8" stroke-linecap="round"/>
  <line x1="100" y1="145" x2="100" y2="165" stroke="white" stroke-width="8" stroke-linecap="round"/>
  <line x1="125" y1="145" x2="125" y2="165" stroke="white" stroke-width="8" stroke-linecap="round"/>
  
  <line x1="35" y1="75" x2="55" y2="75" stroke="white" stroke-width="8" stroke-linecap="round"/>
  <line x1="35" y1="100" x2="55" y2="100" stroke="white" stroke-width="8" stroke-linecap="round"/>
  <line x1="35" y1="125" x2="55" y2="125" stroke="white" stroke-width="8" stroke-linecap="round"/>
  
  <line x1="145" y1="75" x2="165" y2="75" stroke="white" stroke-width="8" stroke-linecap="round"/>
  <line x1="145" y1="100" x2="165" y2="100" stroke="white" stroke-width="8" stroke-linecap="round"/>
  <line x1="145" y1="125" x2="165" y2="125" stroke="white" stroke-width="8" stroke-linecap="round"/>
</svg>
